<?xml version="1.0" encoding="utf-8"?>
<!-- Generator: Adobe Illustrator 26.0.3, SVG Export Plug-In . SVG Version: 6.00 Build 0)  -->
<svg version="1.1" id="Ebene_1" xmlns="http://www.w3.org/2000/svg" xmlns:xlink="http://www.w3.org/1999/xlink" x="0px" y="0px"
	 viewBox="0 0 595.28 841.89" style="enable-background:new 0 0 595.28 841.89;" xml:space="preserve">
<style type="text/css">
	.st0{fill:#EB5765;stroke:#FFFFFF;stroke-width:3;}
	.st1{fill:#FFFFFF;}
</style>
<g transform="matrix(1, 0, 0, 1, 0, 0)">
	<circle id="Ellipse_3-2" class="st0" cx="297.97" cy="420.79" r="27"/>
</g>
<g id="_21-emergency">
	<path class="st1" d="M299.45,428.3c-0.2-0.23-0.53-0.32-0.82-0.22c-1.71,0.66-3.22,1.74-4.39,3.14c-0.11,0.15-0.29,0.23-0.48,0.22
		h-0.01c-1.25,0-3.54-2.12-4.67-3.44c-1.13-1.39-2.85-4.09-2.67-5.42c0.01-0.2,0.12-0.39,0.28-0.5c1.55-1.16,2.82-2.64,3.72-4.35
		c0.14-0.28,0.09-0.61-0.11-0.84l-5.33-6.1c-0.24-0.28-0.64-0.34-0.96-0.16c-2.55,1.63-4.33,4.23-4.9,7.21
		c-0.71,4.08,0.99,8.62,5.07,13.49l1.03,1.23c5.49,6.77,9.36,7.32,11.98,7.32c4.78,0,7.53-4.35,7.64-4.52
		c0.2-0.29,0.18-0.68-0.05-0.94L299.45,428.3z M297.12,438.04c-3.43,0.14-7.04-2.04-10.74-6.49l0,0l-1.03-1.23
		c-3.77-4.5-5.36-8.61-4.74-12.22c0.45-2.32,1.75-4.4,3.65-5.82l4.53,5.18c-0.76,1.3-1.78,2.44-2.98,3.34
		c-0.51,0.36-0.85,0.92-0.92,1.55c-0.34,2.42,2.65,6.18,3.01,6.61c0.35,0.41,3.49,4,5.85,4h0.02c0.65-0.01,1.26-0.3,1.67-0.81
		c0.89-1.04,1.98-1.87,3.22-2.44l4.55,5.2C301.68,436.73,299.49,437.86,297.12,438.04z"/>
	<path class="st1" d="M304.97,403.12c-5.92,0-10.71,4.8-10.71,10.71s4.8,10.71,10.71,10.71s10.71-4.8,10.71-10.71
		C315.68,407.92,310.88,403.13,304.97,403.12z M304.97,423.02c-5.07,0-9.18-4.11-9.18-9.18c0-5.07,4.11-9.18,9.18-9.18
		c5.07,0,9.18,4.11,9.18,9.18C314.15,418.9,310.04,423.01,304.97,423.02z"/>
	<path class="st1" d="M308.03,410.77v-3.83h-6.12v3.83h-3.83v6.12h3.83v3.83h6.12v-3.83h3.83v-6.12H308.03z M310.33,415.37h-3.83
		v3.83h-3.06v-3.83h-3.83v-3.06h3.83v-3.83h3.06v3.83h3.83V415.37z"/>
</g>
</svg>
